<?xml version="1.0" encoding="UTF-8"?><svg xmlns="http://www.w3.org/2000/svg" viewBox="0 0 421.29 131.67"><defs><style>.d{fill:#fff;}.e{fill:red;}</style></defs><g id="a"/><g id="b"><g id="c"><g><g><path class="e" d="M83.77,95.87h-13.37l-6.58-13.02h19.95c13.3,0,19.95,7.59,19.95,22.78s-6.65,22.78-19.95,22.78h-17.1v-29.29h11.4v16.27h5.7c5.7,0,8.55-3.25,8.55-9.76s-2.85-9.76-8.55-9.76Z"/><path class="e" d="M133.14,115.4l-6.93-13.67-13.51,26.68h-13.14l26.65-52.69,26.65,52.69h-37.83l6.59-13.02h11.52Z"/><path class="e" d="M161.29,95.87v29.29l-11.4,6.51v-35.8h-9.09l-6.59-13.02h42.76l-6.59,13.02h-9.09Z"/><path class="e" d="M191.9,115.4l-6.93-13.67-13.51,26.68h-13.14l26.65-52.69,26.65,52.69h-37.83l6.59-13.02h11.52Z"/><path class="e" d="M199.56,95.87l-6.59-13.02h27.08c8.55,0,12.83,4.88,12.83,14.64,0,3.25-.48,5.97-1.43,8.14,.95,2.17,1.43,4.88,1.43,8.14,0,9.76-4.28,14.64-12.83,14.64h-4.02l-6.61-13.02h10.63c.95,0,1.43-.54,1.43-1.63s-.47-1.63-1.43-1.63h-12.26l-6.59-13.02h18.84c.95,0,1.43-.54,1.43-1.63s-.47-1.63-1.43-1.63h-20.5Z"/><path class="e" d="M264.58,115.4l-6.93-13.67-13.51,26.68h-13.14l26.65-52.69,26.65,52.69h-37.83l6.59-13.02h11.52Z"/><path class="e" d="M278.42,128.42l-6.59-13.02h27.08c.95,0,1.43-.54,1.43-1.63s-.47-1.63-1.43-1.63h-11.4c-8.55,0-12.83-4.88-12.83-14.64s4.28-14.64,12.83-14.64h27.08l-6.59,13.02h-20.5c-.95,0-1.43,.54-1.43,1.63s.47,1.63,1.43,1.63h11.4c8.55,0,12.83,4.88,12.83,14.64s-4.28,14.64-12.83,14.64h-20.5Z"/><path class="e" d="M355.38,82.86l-6.59,13.02h-21.92v3.25h20.27l-6.59,13.02h-13.68v3.25h12.03l-6.59,13.02h-16.85v-45.56h39.91Z"/></g><g><path class="d" d="M86.86,94.61h-13.37l-6.58-13.02h19.95c13.3,0,19.95,7.59,19.95,22.78s-6.65,22.78-19.95,22.78h-17.1v-29.29h11.4v16.27h5.7c5.7,0,8.55-3.25,8.55-9.76s-2.85-9.76-8.55-9.76Z"/><path class="d" d="M136.23,114.13l-6.93-13.67-13.51,26.68h-13.14l26.65-52.69,26.65,52.69h-37.83l6.59-13.02h11.52Z"/><path class="d" d="M164.38,94.61v29.29l-11.4,6.51v-35.8h-9.09l-6.59-13.02h42.76l-6.59,13.02h-9.09Z"/><path class="d" d="M194.99,114.13l-6.93-13.67-13.51,26.68h-13.14l26.65-52.69,26.65,52.69h-37.83l6.59-13.02h11.52Z"/><path class="d" d="M202.65,94.61l-6.59-13.02h27.08c8.55,0,12.83,4.88,12.83,14.64,0,3.25-.48,5.97-1.43,8.14,.95,2.17,1.43,4.88,1.43,8.14,0,9.76-4.28,14.64-12.83,14.64h-4.02l-6.61-13.02h10.63c.95,0,1.43-.54,1.43-1.63s-.47-1.63-1.43-1.63h-12.26l-6.59-13.02h18.84c.95,0,1.43-.54,1.43-1.63s-.47-1.63-1.43-1.63h-20.5Z"/><path class="d" d="M267.66,114.13l-6.93-13.67-13.51,26.68h-13.14l26.65-52.69,26.65,52.69h-37.83l6.59-13.02h11.52Z"/><path class="d" d="M281.51,127.15l-6.59-13.02h27.08c.95,0,1.43-.54,1.43-1.63s-.47-1.63-1.43-1.63h-11.4c-8.55,0-12.83-4.88-12.83-14.64s4.28-14.64,12.83-14.64h27.08l-6.59,13.02h-20.5c-.95,0-1.43,.54-1.43,1.63s.47,1.63,1.43,1.63h11.4c8.55,0,12.83,4.88,12.83,14.64s-4.28,14.64-12.83,14.64h-20.5Z"/><path class="d" d="M358.47,81.59l-6.59,13.02h-21.92v3.25h20.27l-6.59,13.02h-13.68v3.25h12.03l-6.59,13.02h-16.85v-45.56h39.91Z"/></g><g><path class="e" d="M25.77,24.53H8.5L0,7.72H25.77c17.18,0,25.77,9.81,25.77,29.42s-8.59,29.42-25.77,29.42H3.68V28.74h14.73v21.01h7.36c7.36,0,11.04-4.2,11.04-12.61s-3.68-12.61-11.04-12.61Z"/><path class="e" d="M81.21,7.72h33.14l-8.5,16.81h-24.63c-7.36,0-11.05,4.2-11.05,12.61s3.68,12.61,11.05,12.61h11.85l-8.5,16.81h-3.35c-17.18,0-25.77-9.81-25.77-29.42s8.59-29.42,25.77-29.42Z"/><path class="e" d="M161.78,7.72h33.14l-8.5,16.81h-24.63c-7.36,0-11.05,4.2-11.05,12.61s3.68,12.61,11.05,12.61h11.85l-8.5,16.81h-3.35c-17.18,0-25.77-9.81-25.77-29.42s8.59-29.42,25.77-29.42Z"/><path class="e" d="M190.06,37.14c0-19.61,8.59-29.42,25.77-29.42s25.77,9.81,25.77,29.42-8.59,29.42-25.77,29.42-25.77-9.81-25.77-29.42Zm25.77-12.61c-7.36,0-11.05,4.2-11.05,12.61s3.68,12.61,11.05,12.61,11.04-4.2,11.04-12.61-3.68-12.61-11.04-12.61Z"/><path class="e" d="M261.14,41.77v24.8h-14.73V3.27l25.77,27.32,25.77-27.32V62.36l-14.73,8.41v-29l-11.04,11.73-11.05-11.73Z"/><path class="e" d="M317.5,66.56h-14.73V7.72h14.73v58.84Z"/><path class="e" d="M348.08,7.72h33.14l-8.5,16.81h-24.63c-7.36,0-11.05,4.2-11.05,12.61s3.68,12.61,11.05,12.61h11.85l-8.5,16.81h-3.35c-17.18,0-25.77-9.81-25.77-29.42s8.59-29.42,25.77-29.42Z"/><path class="e" d="M372.48,66.56l-8.5-16.81h34.98c1.23,0,1.84-.7,1.84-2.1s-.61-2.1-1.84-2.1h-14.73c-11.04,0-16.57-6.3-16.57-18.91s5.52-18.91,16.57-18.91h34.98l-8.5,16.81h-26.47c-1.23,0-1.84,.7-1.84,2.1s.61,2.1,1.84,2.1h14.73c11.04,0,16.57,6.3,16.57,18.91s-5.52,18.91-16.57,18.91h-26.47Z"/></g><g><path class="d" d="M27.86,21.27H10.59L2.09,4.46H27.86c17.18,0,25.77,9.81,25.77,29.42s-8.59,29.42-25.77,29.42H5.77V25.47h14.73v21.01h7.36c7.36,0,11.04-4.2,11.04-12.61s-3.68-12.61-11.04-12.61Z"/><path class="d" d="M83.3,4.46h33.14l-8.5,16.81h-24.63c-7.36,0-11.05,4.2-11.05,12.61s3.68,12.61,11.05,12.61h11.85l-8.5,16.81h-3.35c-17.18,0-25.77-9.81-25.77-29.42s8.59-29.42,25.77-29.42Z"/><path class="d" d="M163.87,4.46h33.14l-8.5,16.81h-24.63c-7.36,0-11.05,4.2-11.05,12.61s3.68,12.61,11.05,12.61h11.85l-8.5,16.81h-3.35c-17.18,0-25.77-9.81-25.77-29.42s8.59-29.42,25.77-29.42Z"/><path class="d" d="M192.14,33.88c0-19.61,8.59-29.42,25.77-29.42s25.77,9.81,25.77,29.42-8.59,29.42-25.77,29.42-25.77-9.81-25.77-29.42Zm25.77-12.61c-7.36,0-11.05,4.2-11.05,12.61s3.68,12.61,11.05,12.61,11.04-4.2,11.04-12.61-3.68-12.61-11.04-12.61Z"/><path class="d" d="M263.23,38.5v24.8h-14.73V0l25.77,27.32L300.04,0V59.09l-14.73,8.41v-29l-11.04,11.73-11.05-11.73Z"/><path class="d" d="M319.58,63.3h-14.73V4.46h14.73V63.3Z"/><path class="d" d="M350.17,4.46h33.14l-8.5,16.81h-24.63c-7.36,0-11.05,4.2-11.05,12.61s3.68,12.61,11.05,12.61h11.85l-8.5,16.81h-3.35c-17.18,0-25.77-9.81-25.77-29.42s8.59-29.42,25.77-29.42Z"/><path class="d" d="M374.57,63.3l-8.5-16.81h34.98c1.23,0,1.84-.7,1.84-2.1s-.61-2.1-1.84-2.1h-14.73c-11.04,0-16.57-6.3-16.57-18.91s5.52-18.91,16.57-18.91h34.98l-8.5,16.81h-26.47c-1.23,0-1.84,.7-1.84,2.1s.61,2.1,1.84,2.1h14.73c11.04,0,16.57,6.3,16.57,18.91s-5.52,18.91-16.57,18.91h-26.47Z"/></g></g></g></g></svg>